<svg width="916" height="234" viewBox="0 0 916 234" fill="none" xmlns="http://www.w3.org/2000/svg">
<ellipse cx="148" cy="122.177" rx="148" ry="111.823" fill="#040059"/>
<ellipse cx="148" cy="111.823" rx="148" ry="111.823" fill="#00BCFF"/>
<path d="M230.463 173.05V178.401H68.3114V173.061C68.3114 171.687 68.8563 170.369 69.8264 169.396C70.7966 168.423 72.1128 167.876 73.4862 167.873H78.6937C78.6742 167.699 78.6633 167.524 78.661 167.35V162.521C78.6639 161.149 79.2101 159.834 80.1799 158.864C81.1497 157.894 82.4643 157.347 83.8359 157.344H91.6036V90.3703H78.661C77.2703 90.3736 75.9211 89.8962 74.8416 89.019C73.7621 88.1418 73.0186 86.9185 72.7368 85.556C72.4549 84.1936 72.652 82.7755 73.2948 81.5417C73.9375 80.3079 74.9865 79.334 76.2643 78.7847L146.991 48.126C147.747 47.7985 148.563 47.6295 149.387 47.6295C150.212 47.6295 151.027 47.7985 151.784 48.126L222.51 78.7739C223.788 79.3231 224.837 80.297 225.48 81.5308C226.123 82.7646 226.32 84.1827 226.038 85.5451C225.756 86.9076 225.012 88.1309 223.933 89.0081C222.853 89.8853 221.504 90.3627 220.114 90.3594H207.171V157.333H214.939C216.31 157.336 217.625 157.883 218.595 158.853C219.565 159.823 220.111 161.138 220.114 162.51V167.339C220.112 167.514 220.101 167.688 220.081 167.862H225.288C226.66 167.865 227.974 168.411 228.944 169.381C229.914 170.352 230.46 171.667 230.463 173.039V173.05ZM103.675 157.355H126.095V102.359H103.675V157.355ZM107.782 78.2943H191.004L149.387 60.2456L107.782 78.2943ZM138.177 102.381V157.344H160.598V102.37L138.177 102.381ZM195.1 157.344V102.37H172.669V157.344H195.1Z" fill="white"/>
<path d="M705.092 197.685C700.734 197.685 696.769 196.557 693.198 194.3C689.628 192.044 686.766 189.053 684.613 185.327C682.513 181.548 681.463 177.376 681.463 172.811C681.463 168.245 682.513 164.073 684.613 160.295C686.766 156.516 689.628 153.525 693.198 151.321C696.769 149.064 700.734 147.936 705.092 147.936C708.137 147.936 710.92 148.487 713.441 149.589C715.961 150.639 718.114 152.108 719.9 153.997V149.195H731.714V196.426H719.9V191.624C718.114 193.513 715.961 195.009 713.441 196.111C710.92 197.16 708.137 197.685 705.092 197.685ZM706.746 185.641C709.056 185.641 711.157 185.064 713.047 183.91C714.937 182.755 716.434 181.207 717.537 179.265C718.692 177.324 719.269 175.172 719.269 172.811C719.269 170.449 718.692 168.297 717.537 166.356C716.434 164.414 714.937 162.866 713.047 161.711C711.157 160.557 709.056 159.98 706.746 159.98C704.436 159.98 702.335 160.557 700.445 161.711C698.554 162.866 697.032 164.414 695.876 166.356C694.774 168.297 694.222 170.449 694.222 172.811C694.222 175.172 694.774 177.324 695.876 179.265C697.032 181.207 698.554 182.755 700.445 183.91C702.335 185.064 704.436 185.641 706.746 185.641Z" fill="white"/>
<path d="M659.615 196.426V149.195H673.32V196.426H659.615ZM666.468 142.347C664.42 142.347 662.687 141.639 661.269 140.222C659.852 138.805 659.143 137.073 659.143 135.026C659.143 132.927 659.852 131.195 661.269 129.831C662.687 128.414 664.42 127.706 666.468 127.706C668.568 127.706 670.301 128.414 671.666 129.831C673.084 131.195 673.793 132.927 673.793 135.026C673.793 137.073 673.084 138.805 671.666 140.222C670.301 141.639 668.568 142.347 666.468 142.347Z" fill="white"/>
<path d="M623.238 196.426V149.195H635.526V157.303C637.153 154.574 639.201 152.475 641.669 151.006C644.19 149.484 647.13 148.723 650.491 148.723L653.484 160.845C652.486 160.531 651.357 160.373 650.097 160.373C646.159 160.373 642.982 161.659 640.567 164.23C638.151 166.749 636.943 170.37 636.943 175.093V196.426H623.238Z" fill="white"/>
<path d="M586.244 197.685C581.885 197.685 577.921 196.557 574.35 194.3C570.78 192.044 567.918 189.053 565.765 185.327C563.665 181.548 562.614 177.376 562.614 172.811C562.614 168.245 563.665 164.073 565.765 160.295C567.918 156.516 570.78 153.525 574.35 151.321C577.921 149.064 581.885 147.936 586.244 147.936C589.289 147.936 592.072 148.487 594.593 149.589C597.113 150.639 599.266 152.108 601.051 153.997V149.195H612.866V196.426H601.051V191.624C599.266 193.513 597.113 195.009 594.593 196.111C592.072 197.16 589.289 197.685 586.244 197.685ZM587.898 185.641C590.208 185.641 592.309 185.064 594.199 183.91C596.089 182.755 597.586 181.207 598.689 179.265C599.844 177.324 600.421 175.172 600.421 172.811C600.421 170.449 599.844 168.297 598.689 166.356C597.586 164.414 596.089 162.866 594.199 161.711C592.309 160.557 590.208 159.98 587.898 159.98C585.587 159.98 583.487 160.557 581.597 161.711C579.706 162.866 578.184 164.414 577.028 166.356C575.926 168.297 575.374 170.449 575.374 172.811C575.374 175.172 575.926 177.324 577.028 179.265C578.184 181.207 579.706 182.755 581.597 183.91C583.487 185.064 585.587 185.641 587.898 185.641Z" fill="white"/>
<path d="M540.839 198C536.165 198 531.886 196.872 528 194.615C524.114 192.359 521.016 189.315 518.706 185.484C516.448 181.653 515.319 177.429 515.319 172.811C515.319 168.14 516.448 163.915 518.706 160.137C521.016 156.306 524.114 153.262 528 151.006C531.886 148.749 536.165 147.621 540.839 147.621C544.094 147.621 547.166 148.172 550.054 149.274C552.995 150.324 555.594 151.898 557.852 153.997L554.307 167.93C552.995 165.778 551.235 163.915 549.03 162.341C546.877 160.714 544.33 159.901 541.39 159.901C538.922 159.901 536.717 160.478 534.774 161.633C532.831 162.787 531.308 164.335 530.205 166.277C529.103 168.219 528.551 170.397 528.551 172.811C528.551 175.172 529.103 177.35 530.205 179.344C531.308 181.286 532.831 182.834 534.774 183.988C536.717 185.143 538.922 185.72 541.39 185.72C544.33 185.72 546.877 184.933 549.03 183.359C551.235 181.732 552.995 179.843 554.307 177.691L557.852 191.624C555.594 193.723 552.995 195.324 550.054 196.426C547.166 197.475 544.094 198 540.839 198Z" fill="white"/>
<path d="M462.522 196.426V149.195H474.809V154.391C476.49 152.187 478.564 150.507 481.032 149.353C483.5 148.198 486.151 147.621 488.987 147.621C492.348 147.621 495.472 148.434 498.36 150.061C501.3 151.636 503.663 153.971 505.449 157.067C507.287 160.111 508.205 163.81 508.205 168.166V196.426H494.5V169.977C494.5 167.353 493.713 165.017 492.138 162.971C490.562 160.924 488.304 159.901 485.364 159.901C483.001 159.901 480.874 160.714 478.984 162.341C477.146 163.915 476.227 166.408 476.227 169.819V196.426H462.522Z" fill="white"/>
<path d="M425.527 197.685C421.169 197.685 417.205 196.557 413.634 194.3C410.063 192.044 407.202 189.053 405.049 185.327C402.948 181.548 401.898 177.376 401.898 172.811C401.898 168.245 402.948 164.073 405.049 160.295C407.202 156.516 410.063 153.525 413.634 151.321C417.205 149.064 421.169 147.936 425.527 147.936C428.573 147.936 431.356 148.487 433.876 149.589C436.397 150.639 438.55 152.108 440.335 153.997V149.195H452.15V196.426H440.335V191.624C438.55 193.513 436.397 195.009 433.876 196.111C431.356 197.16 428.573 197.685 425.527 197.685ZM427.182 185.641C429.492 185.641 431.592 185.064 433.483 183.91C435.373 182.755 436.87 181.207 437.972 179.265C439.127 177.324 439.705 175.172 439.705 172.811C439.705 170.449 439.127 168.297 437.972 166.356C436.87 164.414 435.373 162.866 433.483 161.711C431.592 160.557 429.492 159.98 427.182 159.98C424.871 159.98 422.771 160.557 420.88 161.711C418.99 162.866 417.467 164.414 416.312 166.356C415.209 168.297 414.658 170.449 414.658 172.811C414.658 175.172 415.209 177.324 416.312 179.265C417.467 181.207 418.99 182.755 420.88 183.91C422.771 185.064 424.871 185.641 427.182 185.641Z" fill="white"/>
<path d="M372.544 197.685C369.551 197.685 366.794 197.16 364.273 196.111C361.805 195.061 359.652 193.618 357.815 191.781V196.426H346V120.857H359.705V152.187C361.438 150.822 363.381 149.773 365.534 149.038C367.686 148.303 370.023 147.936 372.544 147.936C376.954 147.936 380.945 149.064 384.516 151.321C388.086 153.525 390.922 156.516 393.022 160.295C395.175 164.073 396.252 168.245 396.252 172.811C396.252 177.376 395.175 181.548 393.022 185.327C390.922 189.053 388.086 192.044 384.516 194.3C380.945 196.557 376.954 197.685 372.544 197.685ZM370.968 185.642C373.279 185.642 375.379 185.064 377.269 183.91C379.16 182.755 380.656 181.207 381.759 179.265C382.914 177.324 383.492 175.172 383.492 172.811C383.492 170.449 382.914 168.297 381.759 166.356C380.656 164.414 379.16 162.866 377.269 161.711C375.379 160.557 373.279 159.98 370.968 159.98C368.658 159.98 366.558 160.557 364.667 161.711C362.777 162.866 361.254 164.414 360.099 166.356C358.996 168.297 358.445 170.449 358.445 172.811C358.445 175.172 358.996 177.324 360.099 179.265C361.254 181.207 362.777 182.755 364.667 183.91C366.558 185.064 368.658 185.642 370.968 185.642Z" fill="white"/>
<path d="M889.037 112.832C884.693 112.832 880.742 111.717 877.183 109.488C873.624 107.259 870.772 104.304 868.626 100.623C866.533 96.8901 865.486 92.7686 865.486 88.2582C865.486 83.7478 866.533 79.6263 868.626 75.8936C870.772 72.1608 873.624 69.2058 877.183 67.0283C880.742 64.7991 884.693 63.6844 889.037 63.6844C892.073 63.6844 894.846 64.2288 897.359 65.3175C899.871 66.3544 902.016 67.806 903.796 69.6724V64.9287H915.571V111.588H903.796V106.844C902.016 108.71 899.871 110.188 897.359 111.277C894.846 112.313 892.073 112.832 889.037 112.832ZM890.686 100.934C892.989 100.934 895.082 100.364 896.966 99.223C898.85 98.0825 900.342 96.5531 901.441 94.6349C902.592 92.7167 903.168 90.5911 903.168 88.2582C903.168 85.9252 902.592 83.7997 901.441 81.8815C900.342 79.9633 898.85 78.4339 896.966 77.2933C895.082 76.1528 892.989 75.5825 890.686 75.5825C888.383 75.5825 886.29 76.1528 884.405 77.2933C882.521 78.4339 881.004 79.9633 879.852 81.8815C878.753 83.7997 878.204 85.9252 878.204 88.2582C878.204 90.5911 878.753 92.7167 879.852 94.6349C881.004 96.5531 882.521 98.0825 884.405 99.223C886.29 100.364 888.383 100.934 890.686 100.934Z" fill="white"/>
<path d="M843.711 111.588V64.9286H857.371V111.588H843.711ZM850.541 58.163C848.5 58.163 846.773 57.4631 845.36 56.0634C843.947 54.6636 843.24 52.9528 843.24 50.9309C843.24 48.8571 843.947 47.1463 845.36 45.7984C846.773 44.3986 848.5 43.6987 850.541 43.6987C852.635 43.6987 854.362 44.3986 855.722 45.7984C857.135 47.1463 857.842 48.8571 857.842 50.9309C857.842 52.9528 857.135 54.6636 855.722 56.0634C854.362 57.4631 852.635 58.163 850.541 58.163Z" fill="white"/>
<path d="M819.495 113.143C814.838 113.143 810.572 112.028 806.699 109.799C802.826 107.57 799.739 104.563 797.436 100.778C795.185 96.9936 794.06 92.8202 794.06 88.258C794.06 83.6439 795.185 79.4705 797.436 75.7378C799.739 71.9532 802.826 68.9463 806.699 66.7171C810.572 64.4878 814.838 63.3732 819.495 63.3732C822.74 63.3732 825.802 63.9175 828.68 65.0062C831.611 66.0431 834.202 67.5984 836.452 69.6721L832.919 83.4365C831.611 81.311 829.858 79.4705 827.66 77.9152C825.514 76.3081 822.976 75.5045 820.045 75.5045C817.585 75.5045 815.387 76.0748 813.451 77.2153C811.514 78.3559 809.996 79.8853 808.897 81.8035C807.798 83.7217 807.249 85.8732 807.249 88.258C807.249 90.5909 807.798 92.7424 808.897 94.7125C809.996 96.6307 811.514 98.16 813.451 99.3006C815.387 100.441 817.585 101.011 820.045 101.011C822.976 101.011 825.514 100.234 827.66 98.6785C829.858 97.0713 831.611 95.205 832.919 93.0794L836.452 106.844C834.202 108.918 831.611 110.499 828.68 111.587C825.802 112.624 822.74 113.143 819.495 113.143Z" fill="white"/>
<path d="M741.438 111.587V64.9285H753.685V70.061C755.36 67.8835 757.427 66.2246 759.887 65.084C762.347 63.9434 764.99 63.3732 767.816 63.3732C771.165 63.3732 774.279 64.1767 777.158 65.7839C780.088 67.3392 782.443 69.6462 784.223 72.705C786.055 75.7119 786.97 79.3668 786.97 83.6698V111.587H773.311V85.4584C773.311 82.8663 772.526 80.5592 770.956 78.5373C769.386 76.5155 767.135 75.5045 764.204 75.5045C761.849 75.5045 759.73 76.3081 757.846 77.9152C756.014 79.4705 755.098 81.9331 755.098 85.3029V111.587H741.438Z" fill="white"/>
<path d="M711.649 113.143C706.363 113.143 701.705 112.054 697.675 109.877C693.645 107.699 690.505 104.718 688.255 100.934C686.004 97.0972 684.879 92.7165 684.879 87.7914C684.879 83.0736 685.978 78.9002 688.176 75.2712C690.374 71.5903 693.331 68.6871 697.047 66.5615C700.815 64.436 704.976 63.3732 709.529 63.3732C714.187 63.3732 718.348 64.436 722.011 66.5615C725.675 68.6353 728.553 71.4866 730.647 75.1157C732.793 78.7447 733.865 82.8663 733.865 87.4803V92.224H705.133C703.825 92.224 702.569 92.1462 701.365 91.9907C700.161 91.8352 698.958 91.6537 697.754 91.4463C698.382 94.5569 699.926 97.0972 702.386 99.0673C704.898 100.985 708.09 101.945 711.963 101.945C714.946 101.945 717.615 101.348 719.97 100.156C722.378 98.9636 724.34 97.4861 725.858 95.7234L728.841 107.855C726.486 109.617 723.817 110.939 720.834 111.821C717.903 112.702 714.841 113.143 711.649 113.143ZM697.44 83.281C700.057 82.7107 702.621 82.4256 705.133 82.4256H713.454C714.92 82.4256 716.307 82.4774 717.615 82.5811C718.924 82.6848 720.153 82.8663 721.305 83.1255C720.52 80.3259 719.081 78.1226 716.987 76.5155C714.946 74.9083 712.408 74.1047 709.372 74.1047C706.494 74.1047 703.982 74.9342 701.836 76.5932C699.743 78.2004 698.277 80.4296 697.44 83.281Z" fill="white"/>
<path d="M652.681 111.587V64.9285H664.927V72.9383C666.549 70.2424 668.591 68.1687 671.05 66.7171C673.562 65.2136 676.493 64.4619 679.843 64.4619L682.826 76.4377C681.831 76.1267 680.706 75.9711 679.45 75.9711C675.525 75.9711 672.359 77.2413 669.951 79.7816C667.544 82.2701 666.34 85.8473 666.34 90.5132V111.587H652.681Z" fill="white"/>
<path d="M622.891 113.143C617.605 113.143 612.947 112.054 608.917 109.877C604.887 107.699 601.747 104.718 599.497 100.934C597.246 97.0972 596.121 92.7165 596.121 87.7914C596.121 83.0736 597.22 78.9002 599.418 75.2712C601.616 71.5903 604.573 68.6871 608.289 66.5615C612.057 64.436 616.218 63.3732 620.771 63.3732C625.429 63.3732 629.59 64.436 633.253 66.5615C636.917 68.6353 639.795 71.4866 641.889 75.1157C644.034 78.7447 645.107 82.8663 645.107 87.4803V92.224H616.375C615.067 92.224 613.811 92.1462 612.607 91.9907C611.403 91.8352 610.2 91.6537 608.996 91.4463C609.624 94.5569 611.168 97.0972 613.627 99.0673C616.14 100.985 619.332 101.945 623.205 101.945C626.188 101.945 628.857 101.348 631.212 100.156C633.62 98.9636 635.582 97.4861 637.1 95.7234L640.083 107.855C637.728 109.617 635.059 110.939 632.076 111.821C629.145 112.702 626.083 113.143 622.891 113.143ZM608.682 83.281C611.299 82.7107 613.863 82.4256 616.375 82.4256H624.696C626.162 82.4256 627.549 82.4774 628.857 82.5811C630.166 82.6848 631.395 82.8663 632.547 83.1255C631.762 80.3259 630.323 78.1226 628.229 76.5155C626.188 74.9083 623.65 74.1047 620.614 74.1047C617.736 74.1047 615.224 74.9342 613.078 76.5932C610.985 78.2004 609.519 80.4296 608.682 83.281Z" fill="white"/>
<path d="M570.963 111.588V75.6601H562.171V64.9286H571.199V53.0305C571.199 47.4833 572.821 43.2581 576.066 40.3548C579.363 37.4516 583.419 36 588.234 36C590.013 36 591.714 36.2074 593.337 36.6221C595.012 36.985 596.477 37.5812 597.733 38.4107L595.064 49.3756C593.494 47.4574 591.662 46.4983 589.569 46.4983C588.313 46.4983 587.135 46.9389 586.036 47.8203C584.937 48.7016 584.387 50.3347 584.387 52.7195V64.9286H593.729V75.6601H584.623V111.588H570.963Z" fill="white"/>
<path d="M539.314 113.143C536.122 113.143 532.877 112.624 529.58 111.587C526.335 110.551 523.797 109.151 521.965 107.388L525.34 94.6347C526.858 96.7084 528.952 98.5229 531.621 100.078C534.342 101.634 537.142 102.411 540.021 102.411C541.957 102.411 543.344 102.048 544.181 101.322C545.071 100.597 545.516 99.7153 545.516 98.6785C545.516 97.4861 545.071 96.6307 544.181 96.1122C543.292 95.542 542.376 95.0754 541.434 94.7125L534.839 92.224C533.374 91.6537 531.699 90.8761 529.815 89.891C527.931 88.906 526.283 87.5062 524.869 85.6917C523.509 83.8772 522.828 81.4924 522.828 78.5373C522.828 75.8415 523.509 73.353 524.869 71.0719C526.23 68.7908 528.193 66.9504 530.757 65.5506C533.374 64.099 536.514 63.3732 540.178 63.3732C543.579 63.3732 546.746 63.9434 549.677 65.084C552.66 66.2246 554.832 67.4947 556.192 68.8945L553.052 81.1813C551.273 78.9002 549.153 77.1635 546.693 75.9711C544.286 74.7269 541.983 74.1047 539.785 74.1047C538.11 74.1047 536.881 74.4417 536.095 75.1157C535.31 75.7896 534.918 76.5673 534.918 77.4486C534.918 78.1226 535.18 78.7966 535.703 79.4705C536.279 80.0926 537.221 80.6629 538.529 81.1813L544.652 83.4365C546.432 84.0587 548.316 84.8881 550.305 85.925C552.346 86.9619 554.073 88.4135 555.486 90.2799C556.899 92.0944 557.605 94.6088 557.605 97.8231C557.605 102.333 555.904 106.014 552.503 108.866C549.153 111.717 544.757 113.143 539.314 113.143Z" fill="white"/>
<path d="M468.872 111.587V64.9285H481.119V70.061C482.793 67.8835 484.861 66.2246 487.32 65.084C489.78 63.9434 492.423 63.3732 495.249 63.3732C498.599 63.3732 501.713 64.1767 504.591 65.7839C507.522 67.3392 509.877 69.6462 511.656 72.705C513.488 75.7119 514.404 79.3668 514.404 83.6698V111.587H500.744V85.4584C500.744 82.8663 499.959 80.5592 498.389 78.5373C496.819 76.5155 494.569 75.5045 491.638 75.5045C489.283 75.5045 487.163 76.3081 485.279 77.9152C483.447 79.4705 482.532 81.9331 482.532 85.3029V111.587H468.872Z" fill="white"/>
<path d="M432 112.832C427.656 112.832 423.705 111.717 420.146 109.488C416.587 107.259 413.735 104.304 411.589 100.623C409.496 96.8901 408.449 92.7686 408.449 88.2582C408.449 83.7478 409.496 79.6263 411.589 75.8936C413.735 72.1608 416.587 69.2058 420.146 67.0283C423.705 64.7991 427.656 63.6844 432 63.6844C435.035 63.6844 437.809 64.2288 440.321 65.3175C442.833 66.3544 444.979 67.806 446.759 69.6724V64.9287H458.534V111.588H446.759V106.844C444.979 108.71 442.833 110.188 440.321 111.277C437.809 112.313 435.035 112.832 432 112.832ZM433.648 100.934C435.951 100.934 438.045 100.364 439.929 99.223C441.813 98.0825 443.304 96.5531 444.403 94.6349C445.555 92.7167 446.131 90.5911 446.131 88.2582C446.131 85.9252 445.555 83.7997 444.403 81.8815C443.304 79.9633 441.813 78.4339 439.929 77.2933C438.045 76.1528 435.951 75.5825 433.648 75.5825C431.346 75.5825 429.252 76.1528 427.368 77.2933C425.484 78.4339 423.966 79.9633 422.815 81.8815C421.716 83.7997 421.166 85.9252 421.166 88.2582C421.166 90.5911 421.716 92.7167 422.815 94.6349C423.966 96.5531 425.484 98.0825 427.368 99.223C429.252 100.364 431.346 100.934 433.648 100.934Z" fill="white"/>
<path d="M376.25 111.587V64.9285H388.497V72.9383C390.119 70.2424 392.16 68.1687 394.62 66.7171C397.132 65.2136 400.063 64.4619 403.412 64.4619L406.396 76.4377C405.401 76.1267 404.276 75.9711 403.02 75.9711C399.095 75.9711 395.928 77.2413 393.521 79.7816C391.114 82.2701 389.91 85.8473 389.91 90.5132V111.587H376.25Z" fill="white"/>
<path d="M328 54.197V41.5991H377.143V54.197H359.872V111.588H345.271V54.197H328Z" fill="white"/>
</svg>
