<svg width="867" height="371" viewBox="0 0 867 371" fill="none" xmlns="http://www.w3.org/2000/svg">
<path d="M820.077 200.605C811.675 200.605 803.521 199.567 795.614 197.492C787.707 195.416 781.283 192.649 776.341 189.189L785.977 167.544C790.623 170.608 796.01 173.078 802.138 174.956C808.266 176.834 814.295 177.773 820.225 177.773C831.493 177.773 837.126 174.956 837.126 169.323C837.126 166.357 835.496 164.183 832.234 162.799C829.071 161.317 823.931 159.785 816.815 158.203C809.007 156.523 802.483 154.744 797.245 152.866C792.007 150.889 787.509 147.776 783.753 143.526C779.998 139.276 778.12 133.543 778.12 126.328C778.12 120.002 779.849 114.319 783.309 109.278C786.768 104.138 791.908 100.086 798.728 97.1209C805.646 94.1558 814.097 92.6732 824.08 92.6732C830.9 92.6732 837.621 93.4639 844.243 95.0453C850.865 96.5279 856.696 98.7518 861.737 101.717L852.693 123.511C842.81 118.174 833.222 115.505 823.931 115.505C818.1 115.505 813.85 116.394 811.181 118.174C808.513 119.854 807.178 122.078 807.178 124.845C807.178 127.613 808.76 129.688 811.923 131.072C815.085 132.456 820.176 133.889 827.193 135.372C835.1 137.052 841.624 138.88 846.763 140.857C852.002 142.735 856.499 145.799 860.255 150.049C864.109 154.2 866.037 159.884 866.037 167.099C866.037 173.326 864.307 178.959 860.848 184C857.388 189.041 852.199 193.093 845.281 196.157C838.362 199.122 829.961 200.605 820.077 200.605Z" fill="white"/>
<path d="M709.26 200.605C700.858 200.605 692.704 199.567 684.797 197.492C676.89 195.416 670.465 192.649 665.524 189.189L675.16 167.544C679.806 170.608 685.192 173.078 691.32 174.956C697.448 176.834 703.478 177.773 709.408 177.773C720.676 177.773 726.309 174.956 726.309 169.323C726.309 166.357 724.679 164.183 721.417 162.799C718.254 161.317 713.114 159.785 705.998 158.203C698.19 156.523 691.666 154.744 686.428 152.866C681.19 150.889 676.692 147.776 672.936 143.526C669.181 139.276 667.303 133.543 667.303 126.328C667.303 120.002 669.032 114.319 672.492 109.278C675.951 104.138 681.091 100.086 687.911 97.1209C694.829 94.1558 703.28 92.6732 713.263 92.6732C720.083 92.6732 726.804 93.4639 733.426 95.0453C740.048 96.5279 745.879 98.7518 750.92 101.717L741.876 123.511C731.993 118.174 722.405 115.505 713.114 115.505C707.283 115.505 703.033 116.394 700.364 118.174C697.696 119.854 696.361 122.078 696.361 124.845C696.361 127.613 697.943 129.688 701.106 131.072C704.268 132.456 709.359 133.889 716.376 135.372C724.283 137.052 730.807 138.88 735.946 140.857C741.185 142.735 745.682 145.799 749.438 150.049C753.292 154.2 755.22 159.884 755.22 167.099C755.22 173.326 753.49 178.959 750.031 184C746.571 189.041 741.382 193.093 734.464 196.157C727.545 199.122 719.144 200.605 709.26 200.605Z" fill="white"/>
<path d="M471.377 94.7488C480.767 94.7488 488.921 96.3302 495.84 99.493C502.759 102.557 508.096 107.005 511.852 112.836C515.608 118.569 517.486 125.339 517.486 133.148C517.486 140.956 515.608 147.726 511.852 153.459C508.096 159.192 502.759 163.639 495.84 166.802C488.921 169.866 480.767 171.398 471.377 171.398H453.29V198.529H423.935V94.7488H471.377ZM469.598 148.27C475.627 148.27 480.174 146.985 483.238 144.415C486.302 141.747 487.834 137.991 487.834 133.148C487.834 128.305 486.302 124.549 483.238 121.88C480.174 119.211 475.627 117.877 469.598 117.877H453.29V148.27H469.598Z" fill="white"/>
<path d="M361.355 198.529L361.058 143.526L334.372 188.3H321.325L294.787 145.008V198.529H267.656V94.7488H291.822L328.293 154.645L363.875 94.7488H388.041L388.338 198.529H361.355Z" fill="white"/>
<path d="M179.783 200.605C168.812 200.605 158.928 198.282 150.131 193.637C141.433 188.992 134.564 182.567 129.523 174.363C124.581 166.16 122.11 156.918 122.11 146.639C122.11 136.36 124.581 127.118 129.523 118.915C134.564 110.711 141.433 104.287 150.131 99.6413C158.928 94.9959 168.812 92.6732 179.783 92.6732C190.754 92.6732 200.588 94.9959 209.286 99.6413C218.083 104.287 224.952 110.711 229.894 118.915C234.935 127.118 237.455 136.36 237.455 146.639C237.455 156.918 234.935 166.16 229.894 174.363C224.952 182.567 218.083 188.992 209.286 193.637C200.588 198.282 190.754 200.605 179.783 200.605ZM179.783 176.291C185.021 176.291 189.765 175.055 194.015 172.584C198.265 170.113 201.626 166.654 204.097 162.206C206.568 157.66 207.803 152.471 207.803 146.639C207.803 140.808 206.568 135.668 204.097 131.22C201.626 126.674 198.265 123.165 194.015 120.694C189.765 118.223 185.021 116.988 179.783 116.988C174.544 116.988 169.8 118.223 165.55 120.694C161.3 123.165 157.939 126.674 155.468 131.22C152.997 135.668 151.762 140.808 151.762 146.639C151.762 152.471 152.997 157.66 155.468 162.206C157.939 166.654 161.3 170.113 165.55 172.584C169.8 175.055 174.544 176.291 179.783 176.291Z" fill="white"/>
<path d="M57.0794 200.605C46.2071 200.605 36.4221 198.332 27.7243 193.785C19.1253 189.14 12.3548 182.715 7.4129 174.512C2.47097 166.308 0 157.017 0 146.639C0 136.261 2.47097 126.97 7.4129 118.767C12.3548 110.563 19.1253 104.188 27.7243 99.6413C36.4221 94.9959 46.2071 92.6732 57.0794 92.6732C66.5679 92.6732 75.1174 94.3534 82.728 97.714C90.3386 101.074 96.6643 105.918 101.705 112.243L83.0245 129.145C76.3035 121.04 68.1493 116.988 58.5619 116.988C52.9281 116.988 47.8874 118.223 43.4396 120.694C39.0907 123.165 35.6808 126.674 33.2098 131.22C30.8377 135.668 29.6516 140.808 29.6516 146.639C29.6516 152.471 30.8377 157.66 33.2098 162.206C35.6808 166.654 39.0907 170.113 43.4396 172.584C47.8874 175.055 52.9281 176.291 58.5619 176.291C68.1493 176.291 76.3035 172.238 83.0245 164.134L101.705 181.035C96.6643 187.361 90.3386 192.204 82.728 195.564C75.1174 198.925 66.5679 200.605 57.0794 200.605Z" fill="white"/>
<g clip-path="url(#clip0_19_24)">
<path d="M602.947 59.312C609.54 49.7569 624.477 53.7461 625.429 65.316L639.219 232.962C640.171 244.532 626.086 250.908 618.02 242.558L582.496 205.781C579.326 202.499 574.606 201.231 570.218 202.484L521.08 216.512C509.933 219.695 500.936 207.157 507.519 197.616L602.947 59.312ZM604.531 106.974C604.283 104.082 600.546 103.097 598.905 105.491L552.227 173.643C550.594 176.027 552.837 179.147 555.617 178.36L583.227 170.539C584.325 170.229 585.505 170.549 586.295 171.371L606.324 192.193C608.342 194.29 611.875 192.688 611.627 189.788L604.531 106.974Z" fill="white"/>
</g>
<path d="M850.973 239.529V281.529H844.973V262.809H820.853V281.529H814.853V239.529H820.853V257.589H844.973V239.529H850.973Z" fill="white"/>
<path d="M784.274 282.009C780.074 282.009 776.274 281.089 772.874 279.249C769.514 277.369 766.874 274.809 764.954 271.569C763.034 268.289 762.074 264.609 762.074 260.529C762.074 256.449 763.034 252.789 764.954 249.549C766.874 246.269 769.534 243.709 772.934 241.869C776.334 239.989 780.134 239.049 784.334 239.049C787.614 239.049 790.614 239.609 793.334 240.729C796.054 241.809 798.374 243.429 800.294 245.589L796.394 249.369C793.234 246.049 789.294 244.389 784.574 244.389C781.454 244.389 778.634 245.089 776.114 246.489C773.594 247.889 771.614 249.829 770.174 252.309C768.774 254.749 768.074 257.489 768.074 260.529C768.074 263.569 768.774 266.329 770.174 268.809C771.614 271.249 773.594 273.169 776.114 274.569C778.634 275.969 781.454 276.669 784.574 276.669C789.254 276.669 793.194 274.989 796.394 271.629L800.294 275.409C798.374 277.569 796.034 279.209 793.274 280.329C790.554 281.449 787.554 282.009 784.274 282.009Z" fill="white"/>
<path d="M749.954 276.309V281.529H719.474V239.529H749.114V244.749H725.474V257.649H746.534V262.749H725.474V276.309H749.954Z" fill="white"/>
<path d="M686.599 244.749H672.199V239.529H706.939V244.749H692.539V281.529H686.599V244.749Z" fill="white"/>
<defs>
<clipPath id="clip0_19_24">
<rect width="270.524" height="271.12" fill="white" transform="translate(396.539 135.262) rotate(-30)"/>
</clipPath>
</defs>
</svg>
